# MagicaVoxel @ Ephtracy

# group
o 

# material
mtllib bed.mtl
usemtl palette

# normals
vn -1 0 0
vn 1 0 0
vn 0 0 1
vn 0 0 -1
vn 0 -1 0
vn 0 1 0

# texcoords
vt 0.794922 0.5
vt 0.849609 0.5
vt 0.857422 0.5
vt 0.861328 0.5
vt 0.986328 0.5

# verts
v -5.8 0.1 4.6
v -5.8 0.1 3.9
v -5.8 0.1 0.3
v -5.8 0.1 -0.4
v -5.8 0.9 3.9
v -5.8 0.9 0.3
v -5.8 3.6 4.2
v -5.8 3.6 0.1
v -5.8 3.9 4.6
v -5.8 3.9 4.2
v -5.8 3.9 0.1
v -5.8 3.9 -0.4
v -5 2.2 3.3
v -5 2.2 0.8
v -5 2.6 3.3
v -5 2.6 0.8
v -3.9 1.4 4.6
v -3.9 1.4 4.5
v -3.9 1.4 -0.3
v -3.9 1.4 -0.4
v -3.9 2.2 4.5
v -3.9 2.2 -0.3
v -3.9 2.4 4.6
v -3.9 2.4 -0.4
v 2.9 0.1 4.6
v 2.9 0.1 3.9
v 2.9 0.1 0.3
v 2.9 0.1 -0.4
v 2.9 0.9 4.6
v 2.9 0.9 3.9
v 2.9 0.9 0.3
v 2.9 0.9 -0.4
v -5.4 1.3 -0.3
v -5.4 1.3 -0.4
v -5.4 1.4 -0.3
v -5.4 1.4 -0.4
v -5.4 2.4 4.2
v -5.4 2.4 0.1
v -5.4 3.3 4.2
v -5.4 3.3 0.1
v -5.3 1.3 4.6
v -5.3 1.3 4.5
v -5.3 1.4 -0.3
v -5.3 1.4 -0.4
v -5.3 2.2 4.5
v -5.3 2.2 -0.3
v -5.3 2.4 4.2
v -5.3 2.4 0.1
v -5.3 3.3 4.2
v -5.3 3.3 0.1
v -5.3 3.6 4.2
v -5.3 3.6 0.1
v -5.3 3.9 4.6
v -5.3 3.9 4.2
v -5.3 3.9 0.1
v -5.3 3.9 -0.4
v -5.2 0.1 4.6
v -5.2 0.1 3.9
v -5.2 0.1 0.3
v -5.2 0.1 -0.4
v -5.2 0.9 4.6
v -5.2 0.9 3.9
v -5.2 0.9 0.3
v -5.2 0.9 -0.4
v -4.1 2.2 3.3
v -4.1 2.2 0.8
v -4.1 2.6 3.3
v -4.1 2.6 0.8
v 3.4 1.3 4.5
v 3.4 1.3 -0.3
v 3.4 1.4 4.5
v 3.4 1.4 4.4
v 3.4 1.4 -0.2
v 3.4 1.4 -0.3
v 3.4 2.2 4.4
v 3.4 2.2 -0.2
v 3.5 0.1 4.6
v 3.5 0.1 3.9
v 3.5 0.1 0.3
v 3.5 0.1 -0.4
v 3.5 0.9 3.9
v 3.5 0.9 0.3
v 3.5 1.3 4.6
v 3.5 1.3 -0.4
v 3.5 1.4 4.6
v 3.5 1.4 4.4
v 3.5 1.4 -0.2
v 3.5 1.4 -0.4
v 3.5 2.2 4.4
v 3.5 2.2 -0.2
v 3.5 2.4 4.6
v 3.5 2.4 -0.4
v -5.8 0.1 4.6
v -5.8 3.9 4.6
v -5.3 1.3 4.6
v -5.3 3.9 4.6
v -5.2 0.1 4.6
v -5.2 0.9 4.6
v -3.9 1.4 4.6
v -3.9 2.4 4.6
v -2.9 1.4 4.6
v -2.9 2.4 4.6
v -1.9 1.4 4.6
v -1.9 2.4 4.6
v 0.9 1.4 4.6
v 0.9 2.4 4.6
v 2.1 1.4 4.6
v 2.1 2.4 4.6
v 2.9 0.1 4.6
v 2.9 0.9 4.6
v 3.5 0.1 4.6
v 3.5 1.3 4.6
v 3.5 1.4 4.6
v 3.5 2.4 4.6
v -5.3 1.3 4.5
v -5.3 2.2 4.5
v -3.9 1.4 4.5
v -3.9 2.2 4.5
v -2.9 1.4 4.5
v -1.9 1.4 4.5
v 0.9 1.4 4.5
v 2.1 1.4 4.5
v 3.4 1.3 4.5
v 3.4 1.4 4.5
v -5 2.2 3.3
v -5 2.6 3.3
v -4.1 2.2 3.3
v -4.1 2.6 3.3
v -5.8 0.1 0.3
v -5.8 0.9 0.3
v -5.2 0.1 0.3
v -5.2 0.9 0.3
v 2.9 0.1 0.3
v 2.9 0.9 0.3
v 3.5 0.1 0.3
v 3.5 0.9 0.3
v -5.8 3.6 0.1
v -5.8 3.9 0.1
v -5.4 2.4 0.1
v -5.4 3.3 0.1
v -5.3 2.4 0.1
v -5.3 3.3 0.1
v -5.3 3.6 0.1
v -5.3 3.9 0.1
v 3.4 1.4 -0.2
v 3.4 2.2 -0.2
v 3.5 1.4 -0.2
v 3.5 2.2 -0.2
v 3.4 1.4 4.4
v 3.4 2.2 4.4
v 3.5 1.4 4.4
v 3.5 2.2 4.4
v -5.8 3.6 4.2
v -5.8 3.9 4.2
v -5.4 2.4 4.2
v -5.4 3.3 4.2
v -5.3 2.4 4.2
v -5.3 3.3 4.2
v -5.3 3.6 4.2
v -5.3 3.9 4.2
v -5.8 0.1 3.9
v -5.8 0.9 3.9
v -5.2 0.1 3.9
v -5.2 0.9 3.9
v 2.9 0.1 3.9
v 2.9 0.9 3.9
v 3.5 0.1 3.9
v 3.5 0.9 3.9
v -5 2.2 0.8
v -5 2.6 0.8
v -4.1 2.2 0.8
v -4.1 2.6 0.8
v -5.4 1.3 -0.3
v -5.4 1.4 -0.3
v -5.3 1.3 -0.3
v -5.3 1.4 -0.3
v -5.3 2.2 -0.3
v -3.9 1.4 -0.3
v -3.9 2.2 -0.3
v -2.9 1.4 -0.3
v -1.9 1.4 -0.3
v 0.9 1.4 -0.3
v 2.1 1.4 -0.3
v 3.4 1.3 -0.3
v 3.4 1.4 -0.3
v -5.8 0.1 -0.4
v -5.8 3.9 -0.4
v -5.4 1.3 -0.4
v -5.4 1.4 -0.4
v -5.3 1.4 -0.4
v -5.3 3.9 -0.4
v -5.2 0.1 -0.4
v -5.2 0.9 -0.4
v -3.9 1.4 -0.4
v -3.9 2.4 -0.4
v -2.9 1.4 -0.4
v -2.9 2.4 -0.4
v -1.9 1.4 -0.4
v -1.9 2.4 -0.4
v 0.9 1.4 -0.4
v 0.9 2.4 -0.4
v 2.1 1.4 -0.4
v 2.1 2.4 -0.4
v 2.9 0.1 -0.4
v 2.9 0.9 -0.4
v 3.5 0.1 -0.4
v 3.5 1.3 -0.4
v 3.5 1.4 -0.4
v 3.5 2.4 -0.4
v -5.8 0.1 4.6
v -5.2 0.1 4.6
v 2.9 0.1 4.6
v 3.5 0.1 4.6
v -5.8 0.1 3.9
v -5.2 0.1 3.9
v 2.9 0.1 3.9
v 3.5 0.1 3.9
v -5.8 0.1 0.3
v -5.2 0.1 0.3
v 2.9 0.1 0.3
v 3.5 0.1 0.3
v -5.8 0.1 -0.4
v -5.2 0.1 -0.4
v 2.9 0.1 -0.4
v 3.5 0.1 -0.4
v -5.2 0.9 4.6
v 2.9 0.9 4.6
v -5.8 0.9 3.9
v -5.2 0.9 3.9
v 2.9 0.9 3.9
v 3.5 0.9 3.9
v -5.8 0.9 0.3
v -5.2 0.9 0.3
v 2.9 0.9 0.3
v 3.5 0.9 0.3
v -5.2 0.9 -0.4
v 2.9 0.9 -0.4
v -3.9 1.4 4.6
v -2.9 1.4 4.6
v -1.9 1.4 4.6
v 0.9 1.4 4.6
v 2.1 1.4 4.6
v 3.5 1.4 4.6
v -3.9 1.4 4.5
v -2.9 1.4 4.5
v -1.9 1.4 4.5
v 0.9 1.4 4.5
v 2.1 1.4 4.5
v 3.4 1.4 4.5
v 3.4 1.4 4.4
v 3.5 1.4 4.4
v 3.4 1.4 -0.2
v 3.5 1.4 -0.2
v -5.4 1.4 -0.3
v -5.3 1.4 -0.3
v -3.9 1.4 -0.3
v -2.9 1.4 -0.3
v -1.9 1.4 -0.3
v 0.9 1.4 -0.3
v 2.1 1.4 -0.3
v 3.4 1.4 -0.3
v -5.4 1.4 -0.4
v -5.3 1.4 -0.4
v -3.9 1.4 -0.4
v -2.9 1.4 -0.4
v -1.9 1.4 -0.4
v 0.9 1.4 -0.4
v 2.1 1.4 -0.4
v 3.5 1.4 -0.4
v 3.4 2.2 4.4
v 3.5 2.2 4.4
v 3.4 2.2 -0.2
v 3.5 2.2 -0.2
v -5.4 3.3 4.2
v -5.3 3.3 4.2
v -5.4 3.3 0.1
v -5.3 3.3 0.1
v -5.3 1.3 4.6
v 3.5 1.3 4.6
v -5.3 1.3 4.5
v 3.4 1.3 4.5
v -5.4 1.3 -0.3
v -5.3 1.3 -0.3
v 3.4 1.3 -0.3
v -5.4 1.3 -0.4
v 3.5 1.3 -0.4
v -5.3 2.2 4.5
v -3.9 2.2 4.5
v -5 2.2 3.3
v -4.1 2.2 3.3
v -5 2.2 0.8
v -4.1 2.2 0.8
v -5.3 2.2 -0.3
v -3.9 2.2 -0.3
v -3.9 2.4 4.6
v -2.9 2.4 4.6
v -1.9 2.4 4.6
v 0.9 2.4 4.6
v 2.1 2.4 4.6
v 3.5 2.4 4.6
v -5.4 2.4 4.2
v -5.3 2.4 4.2
v -5.4 2.4 0.1
v -5.3 2.4 0.1
v -3.9 2.4 -0.4
v -2.9 2.4 -0.4
v -1.9 2.4 -0.4
v 0.9 2.4 -0.4
v 2.1 2.4 -0.4
v 3.5 2.4 -0.4
v -5 2.6 3.3
v -4.1 2.6 3.3
v -5 2.6 0.8
v -4.1 2.6 0.8
v -5.8 3.6 4.2
v -5.3 3.6 4.2
v -5.8 3.6 0.1
v -5.3 3.6 0.1
v -5.8 3.9 4.6
v -5.3 3.9 4.6
v -5.8 3.9 4.2
v -5.3 3.9 4.2
v -5.8 3.9 0.1
v -5.3 3.9 0.1
v -5.8 3.9 -0.4
v -5.3 3.9 -0.4

# faces
f 5/5/1 2/5/1 1/5/1
f 6/5/1 4/5/1 3/5/1
f 7/5/1 5/5/1 1/5/1
f 7/5/1 6/5/1 5/5/1
f 8/5/1 4/5/1 6/5/1
f 8/5/1 6/5/1 7/5/1
f 9/5/1 7/5/1 1/5/1
f 10/5/1 7/5/1 9/5/1
f 11/5/1 4/5/1 8/5/1
f 12/5/1 4/5/1 11/5/1
f 15/3/1 14/3/1 13/3/1
f 16/3/1 14/3/1 15/3/1
f 21/3/1 18/3/1 17/3/1
f 22/3/1 20/3/1 19/3/1
f 23/3/1 21/3/1 17/3/1
f 23/3/1 22/3/1 21/3/1
f 24/3/1 20/3/1 22/3/1
f 24/3/1 22/3/1 23/3/1
f 29/5/1 26/5/1 25/5/1
f 30/5/1 26/5/1 29/5/1
f 31/5/1 28/5/1 27/5/1
f 32/5/1 28/5/1 31/5/1
f 33/5/2 34/5/2 35/5/2
f 35/5/2 34/5/2 36/5/2
f 37/5/2 38/5/2 39/5/2
f 39/5/2 38/5/2 40/5/2
f 41/5/2 42/5/2 45/5/2
f 43/5/2 44/5/2 46/5/2
f 45/5/2 46/5/2 47/5/2
f 47/5/2 46/5/2 48/5/2
f 45/5/2 47/5/2 49/5/2
f 48/5/2 46/5/2 50/5/2
f 45/5/2 49/5/2 51/5/2
f 49/5/2 50/5/2 51/5/2
f 50/5/2 46/5/2 52/5/2
f 51/5/2 50/5/2 52/5/2
f 41/5/2 45/5/2 53/5/2
f 45/5/2 51/5/2 53/5/2
f 53/5/2 51/5/2 54/5/2
f 52/5/2 46/5/2 55/5/2
f 46/5/2 44/5/2 56/5/2
f 55/5/2 46/5/2 56/5/2
f 57/5/2 58/5/2 61/5/2
f 61/5/2 58/5/2 62/5/2
f 59/5/2 60/5/2 63/5/2
f 63/5/2 60/5/2 64/5/2
f 65/3/2 66/3/2 67/3/2
f 67/3/2 66/3/2 68/3/2
f 69/2/2 70/2/2 71/2/2
f 71/2/2 70/2/2 72/2/2
f 72/2/2 70/2/2 73/2/2
f 73/2/2 70/2/2 74/2/2
f 72/2/2 73/2/2 75/2/2
f 75/2/2 73/2/2 76/2/2
f 77/5/2 78/5/2 81/5/2
f 79/5/2 80/5/2 82/5/2
f 77/5/2 81/5/2 83/5/2
f 81/5/2 82/5/2 83/5/2
f 82/5/2 80/5/2 84/5/2
f 83/5/2 82/5/2 84/5/2
f 85/3/2 86/3/2 89/3/2
f 87/3/2 88/3/2 90/3/2
f 85/3/2 89/3/2 91/3/2
f 89/3/2 90/3/2 91/3/2
f 90/3/2 88/3/2 92/3/2
f 91/3/2 90/3/2 92/3/2
f 95/5/3 94/5/3 93/5/3
f 96/5/3 94/5/3 95/5/3
f 97/5/3 95/5/3 93/5/3
f 98/5/3 95/5/3 97/5/3
f 101/3/3 100/3/3 99/3/3
f 102/3/3 100/3/3 101/3/3
f 103/4/3 102/4/3 101/4/3
f 104/4/3 102/4/3 103/4/3
f 105/1/3 104/1/3 103/1/3
f 106/1/3 104/1/3 105/1/3
f 107/4/3 106/4/3 105/4/3
f 108/4/3 106/4/3 107/4/3
f 110/5/3 95/5/3 98/5/3
f 111/5/3 110/5/3 109/5/3
f 112/5/3 95/5/3 110/5/3
f 112/5/3 110/5/3 111/5/3
f 113/3/3 108/3/3 107/3/3
f 114/3/3 108/3/3 113/3/3
f 117/2/3 116/2/3 115/2/3
f 118/2/3 116/2/3 117/2/3
f 119/2/3 117/2/3 115/2/3
f 120/2/3 119/2/3 115/2/3
f 121/2/3 120/2/3 115/2/3
f 122/2/3 121/2/3 115/2/3
f 123/2/3 122/2/3 115/2/3
f 124/2/3 122/2/3 123/2/3
f 127/3/3 126/3/3 125/3/3
f 128/3/3 126/3/3 127/3/3
f 131/5/3 130/5/3 129/5/3
f 132/5/3 130/5/3 131/5/3
f 135/5/3 134/5/3 133/5/3
f 136/5/3 134/5/3 135/5/3
f 141/5/3 140/5/3 139/5/3
f 142/5/3 140/5/3 141/5/3
f 143/5/3 138/5/3 137/5/3
f 144/5/3 138/5/3 143/5/3
f 147/3/3 146/3/3 145/3/3
f 148/3/3 146/3/3 147/3/3
f 149/3/4 150/3/4 151/3/4
f 151/3/4 150/3/4 152/3/4
f 155/5/4 156/5/4 157/5/4
f 157/5/4 156/5/4 158/5/4
f 153/5/4 154/5/4 159/5/4
f 159/5/4 154/5/4 160/5/4
f 161/5/4 162/5/4 163/5/4
f 163/5/4 162/5/4 164/5/4
f 165/5/4 166/5/4 167/5/4
f 167/5/4 166/5/4 168/5/4
f 169/3/4 170/3/4 171/3/4
f 171/3/4 170/3/4 172/3/4
f 173/5/4 174/5/4 175/5/4
f 175/5/4 174/5/4 176/5/4
f 175/2/4 176/2/4 178/2/4
f 176/2/4 177/2/4 178/2/4
f 178/2/4 177/2/4 179/2/4
f 175/2/4 178/2/4 180/2/4
f 175/2/4 180/2/4 181/2/4
f 175/2/4 181/2/4 182/2/4
f 175/2/4 182/2/4 183/2/4
f 175/2/4 183/2/4 184/2/4
f 184/2/4 183/2/4 185/2/4
f 186/5/4 187/5/4 188/5/4
f 188/5/4 187/5/4 189/5/4
f 189/5/4 187/5/4 190/5/4
f 190/5/4 187/5/4 191/5/4
f 186/5/4 188/5/4 192/5/4
f 192/5/4 188/5/4 193/5/4
f 194/3/4 195/3/4 196/3/4
f 196/3/4 195/3/4 197/3/4
f 196/4/4 197/4/4 198/4/4
f 198/4/4 197/4/4 199/4/4
f 198/1/4 199/1/4 200/1/4
f 200/1/4 199/1/4 201/1/4
f 200/4/4 201/4/4 202/4/4
f 202/4/4 201/4/4 203/4/4
f 193/5/4 188/5/4 205/5/4
f 204/5/4 205/5/4 206/5/4
f 205/5/4 188/5/4 207/5/4
f 206/5/4 205/5/4 207/5/4
f 202/3/4 203/3/4 208/3/4
f 208/3/4 203/3/4 209/3/4
f 214/5/5 211/5/5 210/5/5
f 215/5/5 211/5/5 214/5/5
f 216/5/5 213/5/5 212/5/5
f 217/5/5 213/5/5 216/5/5
f 222/5/5 219/5/5 218/5/5
f 223/5/5 219/5/5 222/5/5
f 224/5/5 221/5/5 220/5/5
f 225/5/5 221/5/5 224/5/5
f 229/5/5 227/5/5 226/5/5
f 230/5/5 227/5/5 229/5/5
f 232/5/5 229/5/5 228/5/5
f 232/5/5 231/5/5 230/5/5
f 232/5/5 230/5/5 229/5/5
f 233/5/5 231/5/5 232/5/5
f 234/5/5 231/5/5 233/5/5
f 235/5/5 231/5/5 234/5/5
f 236/5/5 234/5/5 233/5/5
f 237/5/5 234/5/5 236/5/5
f 244/3/5 239/3/5 238/3/5
f 245/4/5 240/4/5 239/4/5
f 245/3/5 239/3/5 244/3/5
f 246/1/5 241/1/5 240/1/5
f 246/4/5 240/4/5 245/4/5
f 247/4/5 242/4/5 241/4/5
f 247/1/5 241/1/5 246/1/5
f 248/3/5 243/3/5 242/3/5
f 248/4/5 242/4/5 247/4/5
f 249/3/5 243/3/5 248/3/5
f 250/3/5 243/3/5 249/3/5
f 251/3/5 243/3/5 250/3/5
f 261/3/5 253/3/5 252/3/5
f 262/5/5 255/5/5 254/5/5
f 263/5/5 255/5/5 262/5/5
f 264/3/5 257/3/5 256/3/5
f 265/4/5 258/4/5 257/4/5
f 265/3/5 257/3/5 264/3/5
f 266/1/5 259/1/5 258/1/5
f 266/4/5 258/4/5 265/4/5
f 267/4/5 260/4/5 259/4/5
f 267/1/5 259/1/5 266/1/5
f 268/3/5 261/3/5 260/3/5
f 268/4/5 260/4/5 267/4/5
f 269/3/5 253/3/5 261/3/5
f 269/3/5 261/3/5 268/3/5
f 272/3/5 271/3/5 270/3/5
f 273/3/5 271/3/5 272/3/5
f 276/5/5 275/5/5 274/5/5
f 277/5/5 275/5/5 276/5/5
f 278/5/6 279/5/6 280/5/6
f 280/5/6 279/5/6 281/5/6
f 281/5/6 279/5/6 284/5/6
f 282/5/6 283/5/6 285/5/6
f 283/5/6 284/5/6 285/5/6
f 284/5/6 279/5/6 286/5/6
f 285/5/6 284/5/6 286/5/6
f 287/2/6 288/2/6 289/2/6
f 289/2/6 288/2/6 290/2/6
f 287/2/6 289/2/6 291/2/6
f 290/2/6 288/2/6 292/2/6
f 287/2/6 291/2/6 293/2/6
f 291/2/6 292/2/6 293/2/6
f 292/2/6 288/2/6 294/2/6
f 293/2/6 292/2/6 294/2/6
f 301/5/6 302/5/6 303/5/6
f 303/5/6 302/5/6 304/5/6
f 295/3/6 296/3/6 305/3/6
f 296/4/6 297/4/6 306/4/6
f 305/3/6 296/3/6 306/3/6
f 297/1/6 298/1/6 307/1/6
f 306/4/6 297/4/6 307/4/6
f 298/4/6 299/4/6 308/4/6
f 307/1/6 298/1/6 308/1/6
f 299/3/6 300/3/6 309/3/6
f 308/4/6 299/4/6 309/4/6
f 309/3/6 300/3/6 310/3/6
f 311/3/6 312/3/6 313/3/6
f 313/3/6 312/3/6 314/3/6
f 315/5/6 316/5/6 317/5/6
f 317/5/6 316/5/6 318/5/6
f 319/5/6 320/5/6 321/5/6
f 321/5/6 320/5/6 322/5/6
f 323/5/6 324/5/6 325/5/6
f 325/5/6 324/5/6 326/5/6
