# MagicaVoxel @ Ephtracy

# group
o 

# material
mtllib desk.mtl
usemtl palette

# normals
vn -1 0 0
vn 1 0 0
vn 0 0 1
vn 0 0 -1
vn 0 -1 0
vn 0 1 0

# texcoords
vt 0.724609 0.5
vt 0.728516 0.5
vt 0.787109 0.5
vt 0.791016 0.5
vt 0.849609 0.5
vt 0.986328 0.5
vt 0.994141 0.5

# verts
v -4.2 0.1 -2.7
v -4.2 0.1 -3.1
v -4.2 0.1 -5.2
v -4.2 0.1 -5.6
v -4.2 4.4 -3.1
v -4.2 4.4 -5.2
v -4.2 4.6 -2.7
v -4.2 4.6 -5.6
v -4.1 3.2 -3.1
v -4.1 3.2 -5.2
v -4.1 4.4 -3.1
v -4.1 4.4 -5.2
v -2.7 3.9 -2.7
v -2.7 3.9 -2.8
v -2.7 4 -2.7
v -2.7 4 -2.8
v -2.5 4.6 -3.7
v -2.5 4.6 -4.3
v -2.5 4.7 -3.7
v -2.5 4.7 -4.3
v -2.5 4.9 -4.8
v -2.5 4.9 -4.9
v -2.5 5.1 -4.8
v -2.5 5.1 -4.9
v -2.5 6.4 -4.8
v -2.5 6.4 -4.9
v -1.5 4.6 -4.6
v -1.5 4.6 -4.9
v -1.5 4.7 -4.6
v -1.5 4.7 -4.8
v -1.5 4.9 -4.8
v -1.5 4.9 -4.9
v -1.1 3.4 -2.7
v -1.1 3.4 -2.8
v -1.1 4.4 -2.7
v -1.1 4.4 -2.8
v 0.0999999 3.9 -2.7
v 0.0999999 3.9 -2.8
v 0.0999999 4 -2.7
v 0.0999999 4 -2.8
v 0.2 4.6 -4
v 0.2 4.6 -4.3
v 0.2 4.7 -4
v 0.2 4.7 -4.3
v 0.8 4.6 -4.5
v 0.8 4.6 -4.9
v 0.8 5.1 -4.5
v 0.8 5.1 -4.9
v 1.1 5 -4.6
v 1.1 5 -4.8
v 1.1 5.1 -4.6
v 1.1 5.1 -4.8
v 1.7 0.1 -2.7
v 1.7 0.1 -3.1
v 1.7 0.1 -5.2
v 1.7 0.1 -5.6
v 1.7 3.2 -2.7
v 1.7 3.2 -3.1
v 1.7 3.2 -5.2
v 1.7 3.2 -5.6
v 1.7 3.4 -2.7
v 1.7 3.4 -2.8
v 1.7 4.4 -2.7
v 1.7 4.4 -2.8
v -3.8 0.1 -2.7
v -3.8 0.1 -3.1
v -3.8 0.1 -5.2
v -3.8 0.1 -5.6
v -3.8 3.2 -2.7
v -3.8 3.2 -3.1
v -3.8 3.2 -5.2
v -3.8 3.2 -5.6
v -3.8 3.4 -2.7
v -3.8 3.4 -2.8
v -3.8 4.4 -2.7
v -3.8 4.4 -2.8
v -2.3 3.9 -2.7
v -2.3 3.9 -2.8
v -2.3 4 -2.7
v -2.3 4 -2.8
v -1 3.4 -2.7
v -1 3.4 -2.8
v -1 4.4 -2.7
v -1 4.4 -2.8
v -0.8 4.6 -4.6
v -0.8 4.6 -4.9
v -0.8 4.7 -4.6
v -0.8 4.7 -4.8
v -0.8 4.9 -4.8
v -0.8 4.9 -4.9
v 0 4.6 -3.7
v 0 4.6 -4.3
v 0 4.7 -3.7
v 0 4.7 -4.3
v 0.2 4.9 -4.8
v 0.2 4.9 -4.9
v 0.2 5.1 -4.8
v 0.2 5.1 -4.9
v 0.2 6.4 -4.8
v 0.2 6.4 -4.9
v 0.4 4.6 -4
v 0.4 4.6 -4.3
v 0.4 4.7 -4
v 0.4 4.7 -4.3
v 0.6 3.9 -2.7
v 0.6 3.9 -2.8
v 0.6 4 -2.7
v 0.6 4 -2.8
v 0.9 5 -4.6
v 0.9 5 -4.8
v 0.9 5.1 -4.6
v 0.9 5.1 -4.8
v 1.2 4.6 -4.5
v 1.2 4.6 -4.9
v 1.2 4.7 -4.7
v 1.2 4.7 -4.8
v 1.2 5 -4.7
v 1.2 5 -4.8
v 1.2 5.1 -4.5
v 1.2 5.1 -4.9
v 1.3 4.7 -4.7
v 1.3 4.7 -4.8
v 1.3 5 -4.7
v 1.3 5 -4.8
v 2 3.2 -3.1
v 2 3.2 -5.2
v 2 4.4 -3.1
v 2 4.4 -5.2
v 2.1 0.1 -2.7
v 2.1 0.1 -3.1
v 2.1 0.1 -5.2
v 2.1 0.1 -5.6
v 2.1 4.4 -3.1
v 2.1 4.4 -5.2
v 2.1 4.6 -2.7
v 2.1 4.6 -5.6
v -4.2 0.1 -2.7
v -4.2 4.6 -2.7
v -3.8 0.1 -2.7
v -3.8 3.2 -2.7
v -3.8 3.4 -2.7
v -3.8 4.4 -2.7
v -2.7 3.9 -2.7
v -2.7 4 -2.7
v -2.3 3.9 -2.7
v -2.3 4 -2.7
v -1.1 3.4 -2.7
v -1.1 4.4 -2.7
v -1 3.4 -2.7
v -1 4.4 -2.7
v 0.0999999 3.9 -2.7
v 0.0999999 4 -2.7
v 0.6 3.9 -2.7
v 0.6 4 -2.7
v 1.7 0.1 -2.7
v 1.7 3.2 -2.7
v 1.7 3.4 -2.7
v 1.7 4.4 -2.7
v 2.1 0.1 -2.7
v 2.1 4.6 -2.7
v -3.8 3.4 -2.8
v -3.8 4.4 -2.8
v -2.7 3.9 -2.8
v -2.7 4 -2.8
v -2.3 3.9 -2.8
v -2.3 4 -2.8
v -1.1 3.4 -2.8
v -1.1 4.4 -2.8
v -1 3.4 -2.8
v -1 4.4 -2.8
v 0.0999999 3.9 -2.8
v 0.0999999 4 -2.8
v 0.6 3.9 -2.8
v 0.6 4 -2.8
v 1.7 3.4 -2.8
v 1.7 4.4 -2.8
v -2.5 4.6 -3.7
v -2.5 4.7 -3.7
v 0 4.6 -3.7
v 0 4.7 -3.7
v 0.2 4.6 -4
v 0.2 4.7 -4
v 0.4 4.6 -4
v 0.4 4.7 -4
v 0.8 4.6 -4.5
v 0.8 5.1 -4.5
v 1.2 4.6 -4.5
v 1.2 5.1 -4.5
v -1.5 4.6 -4.6
v -1.5 4.7 -4.6
v -0.8 4.6 -4.6
v -0.8 4.7 -4.6
v 1.2 4.7 -4.7
v 1.2 5 -4.7
v 1.3 4.7 -4.7
v 1.3 5 -4.7
v -2.5 4.9 -4.8
v -2.5 5.1 -4.8
v -2.5 6.4 -4.8
v -1.5 4.7 -4.8
v -1.5 4.9 -4.8
v -0.8 4.7 -4.8
v -0.8 4.9 -4.8
v 0.2 4.9 -4.8
v 0.2 5.1 -4.8
v 0.2 6.4 -4.8
v 0.9 5 -4.8
v 0.9 5.1 -4.8
v 1.1 5 -4.8
v 1.1 5.1 -4.8
v -4.2 0.1 -5.2
v -4.2 4.4 -5.2
v -4.1 3.2 -5.2
v -4.1 4.4 -5.2
v -3.8 0.1 -5.2
v -3.8 3.2 -5.2
v 1.7 0.1 -5.2
v 1.7 3.2 -5.2
v 2 3.2 -5.2
v 2 4.4 -5.2
v 2.1 0.1 -5.2
v 2.1 4.4 -5.2
v -4.2 0.1 -3.1
v -4.2 4.4 -3.1
v -4.1 3.2 -3.1
v -4.1 4.4 -3.1
v -3.8 0.1 -3.1
v -3.8 3.2 -3.1
v 1.7 0.1 -3.1
v 1.7 3.2 -3.1
v 2 3.2 -3.1
v 2 4.4 -3.1
v 2.1 0.1 -3.1
v 2.1 4.4 -3.1
v -2.5 4.6 -4.3
v -2.5 4.7 -4.3
v 0 4.6 -4.3
v 0 4.7 -4.3
v 0.2 4.6 -4.3
v 0.2 4.7 -4.3
v 0.4 4.6 -4.3
v 0.4 4.7 -4.3
v 0.9 5 -4.6
v 0.9 5.1 -4.6
v 1.1 5 -4.6
v 1.1 5.1 -4.6
v 1.2 4.7 -4.8
v 1.2 5 -4.8
v 1.3 4.7 -4.8
v 1.3 5 -4.8
v -2.5 4.9 -4.9
v -2.5 5.1 -4.9
v -2.5 6.4 -4.9
v -1.5 4.6 -4.9
v -1.5 4.9 -4.9
v -0.8 4.6 -4.9
v -0.8 4.9 -4.9
v 0.2 4.9 -4.9
v 0.2 5.1 -4.9
v 0.2 6.4 -4.9
v 0.8 4.6 -4.9
v 0.8 5.1 -4.9
v 1.2 4.6 -4.9
v 1.2 5.1 -4.9
v -4.2 0.1 -5.6
v -4.2 4.6 -5.6
v -3.8 0.1 -5.6
v -3.8 3.2 -5.6
v 1.7 0.1 -5.6
v 1.7 3.2 -5.6
v 2.1 0.1 -5.6
v 2.1 4.6 -5.6
v -4.2 0.1 -2.7
v -3.8 0.1 -2.7
v 1.7 0.1 -2.7
v 2.1 0.1 -2.7
v -4.2 0.1 -3.1
v -3.8 0.1 -3.1
v 1.7 0.1 -3.1
v 2.1 0.1 -3.1
v -4.2 0.1 -5.2
v -3.8 0.1 -5.2
v 1.7 0.1 -5.2
v 2.1 0.1 -5.2
v -4.2 0.1 -5.6
v -3.8 0.1 -5.6
v 1.7 0.1 -5.6
v 2.1 0.1 -5.6
v -3.8 3.2 -2.7
v 1.7 3.2 -2.7
v -4.1 3.2 -3.1
v -3.8 3.2 -3.1
v 1.7 3.2 -3.1
v 2 3.2 -3.1
v -4.1 3.2 -5.2
v -3.8 3.2 -5.2
v 1.7 3.2 -5.2
v 2 3.2 -5.2
v -3.8 3.2 -5.6
v 1.7 3.2 -5.6
v -2.7 3.9 -2.7
v -2.3 3.9 -2.7
v 0.0999999 3.9 -2.7
v 0.6 3.9 -2.7
v -2.7 3.9 -2.8
v -2.3 3.9 -2.8
v 0.0999999 3.9 -2.8
v 0.6 3.9 -2.8
v -3.8 4.4 -2.7
v -1.1 4.4 -2.7
v -1 4.4 -2.7
v 1.7 4.4 -2.7
v -3.8 4.4 -2.8
v -1.1 4.4 -2.8
v -1 4.4 -2.8
v 1.7 4.4 -2.8
v -4.2 4.4 -3.1
v -4.1 4.4 -3.1
v 2 4.4 -3.1
v 2.1 4.4 -3.1
v -4.2 4.4 -5.2
v -4.1 4.4 -5.2
v 2 4.4 -5.2
v 2.1 4.4 -5.2
v 1.2 4.7 -4.7
v 1.3 4.7 -4.7
v 1.2 4.7 -4.8
v 1.3 4.7 -4.8
v -2.5 4.9 -4.8
v -1.5 4.9 -4.8
v -0.8 4.9 -4.8
v 0.2 4.9 -4.8
v -2.5 4.9 -4.9
v -1.5 4.9 -4.9
v -0.8 4.9 -4.9
v 0.2 4.9 -4.9
v -3.8 3.4 -2.7
v -1.1 3.4 -2.7
v -1 3.4 -2.7
v 1.7 3.4 -2.7
v -3.8 3.4 -2.8
v -1.1 3.4 -2.8
v -1 3.4 -2.8
v 1.7 3.4 -2.8
v -2.7 4 -2.7
v -2.3 4 -2.7
v 0.0999999 4 -2.7
v 0.6 4 -2.7
v -2.7 4 -2.8
v -2.3 4 -2.8
v 0.0999999 4 -2.8
v 0.6 4 -2.8
v -4.2 4.6 -2.7
v 2.1 4.6 -2.7
v -2.5 4.6 -3.7
v 0 4.6 -3.7
v 0.2 4.6 -4
v 0.4 4.6 -4
v -2.5 4.6 -4.3
v 0 4.6 -4.3
v 0.2 4.6 -4.3
v 0.4 4.6 -4.3
v 0.8 4.6 -4.5
v 1.2 4.6 -4.5
v -1.5 4.6 -4.6
v -0.8 4.6 -4.6
v -1.5 4.6 -4.9
v -0.8 4.6 -4.9
v 0.8 4.6 -4.9
v 1.2 4.6 -4.9
v -4.2 4.6 -5.6
v 2.1 4.6 -5.6
v -2.5 4.7 -3.7
v 0 4.7 -3.7
v 0.2 4.7 -4
v 0.4 4.7 -4
v -2.5 4.7 -4.3
v 0 4.7 -4.3
v 0.2 4.7 -4.3
v 0.4 4.7 -4.3
v -1.5 4.7 -4.6
v -0.8 4.7 -4.6
v -1.5 4.7 -4.8
v -0.8 4.7 -4.8
v 0.9 5 -4.6
v 1.1 5 -4.6
v 1.2 5 -4.7
v 1.3 5 -4.7
v 0.9 5 -4.8
v 1.1 5 -4.8
v 1.2 5 -4.8
v 1.3 5 -4.8
v 0.8 5.1 -4.5
v 1.2 5.1 -4.5
v 0.9 5.1 -4.6
v 1.1 5.1 -4.6
v 0.9 5.1 -4.8
v 1.1 5.1 -4.8
v 0.8 5.1 -4.9
v 1.2 5.1 -4.9
v -2.5 6.4 -4.8
v 0.2 6.4 -4.8
v -2.5 6.4 -4.9
v 0.2 6.4 -4.9

# faces
f 5/6/1 2/6/1 1/6/1
f 6/6/1 4/6/1 3/6/1
f 7/6/1 5/6/1 1/6/1
f 7/6/1 6/6/1 5/6/1
f 8/6/1 4/6/1 6/6/1
f 8/6/1 6/6/1 7/6/1
f 11/6/1 10/6/1 9/6/1
f 12/6/1 10/6/1 11/6/1
f 15/7/1 14/7/1 13/7/1
f 16/7/1 14/7/1 15/7/1
f 19/3/1 18/3/1 17/3/1
f 20/3/1 18/3/1 19/3/1
f 23/3/1 22/3/1 21/3/1
f 24/3/1 22/3/1 23/3/1
f 25/4/1 24/4/1 23/4/1
f 26/4/1 24/4/1 25/4/1
f 29/3/1 28/3/1 27/3/1
f 30/3/1 28/3/1 29/3/1
f 31/3/1 28/3/1 30/3/1
f 32/3/1 28/3/1 31/3/1
f 35/6/1 34/6/1 33/6/1
f 36/6/1 34/6/1 35/6/1
f 39/7/1 38/7/1 37/7/1
f 40/7/1 38/7/1 39/7/1
f 43/3/1 42/3/1 41/3/1
f 44/3/1 42/3/1 43/3/1
f 47/1/1 46/1/1 45/1/1
f 48/1/1 46/1/1 47/1/1
f 51/1/1 50/1/1 49/1/1
f 52/1/1 50/1/1 51/1/1
f 57/6/1 54/6/1 53/6/1
f 58/6/1 54/6/1 57/6/1
f 59/6/1 56/6/1 55/6/1
f 60/6/1 56/6/1 59/6/1
f 63/6/1 62/6/1 61/6/1
f 64/6/1 62/6/1 63/6/1
f 65/6/2 66/6/2 69/6/2
f 69/6/2 66/6/2 70/6/2
f 67/6/2 68/6/2 71/6/2
f 71/6/2 68/6/2 72/6/2
f 73/6/2 74/6/2 75/6/2
f 75/6/2 74/6/2 76/6/2
f 77/7/2 78/7/2 79/7/2
f 79/7/2 78/7/2 80/7/2
f 81/6/2 82/6/2 83/6/2
f 83/6/2 82/6/2 84/6/2
f 85/3/2 86/3/2 87/3/2
f 87/3/2 86/3/2 88/3/2
f 88/3/2 86/3/2 89/3/2
f 89/3/2 86/3/2 90/3/2
f 91/3/2 92/3/2 93/3/2
f 93/3/2 92/3/2 94/3/2
f 95/3/2 96/3/2 97/3/2
f 97/3/2 96/3/2 98/3/2
f 97/4/2 98/4/2 99/4/2
f 99/4/2 98/4/2 100/4/2
f 101/3/2 102/3/2 103/3/2
f 103/3/2 102/3/2 104/3/2
f 105/7/2 106/7/2 107/7/2
f 107/7/2 106/7/2 108/7/2
f 109/1/2 110/1/2 111/1/2
f 111/1/2 110/1/2 112/1/2
f 113/1/2 114/1/2 115/1/2
f 115/1/2 114/1/2 116/1/2
f 113/1/2 115/1/2 117/1/2
f 116/1/2 114/1/2 118/1/2
f 113/1/2 117/1/2 119/1/2
f 117/1/2 118/1/2 119/1/2
f 118/1/2 114/1/2 120/1/2
f 119/1/2 118/1/2 120/1/2
f 121/5/2 122/5/2 123/5/2
f 123/5/2 122/5/2 124/5/2
f 125/6/2 126/6/2 127/6/2
f 127/6/2 126/6/2 128/6/2
f 129/6/2 130/6/2 133/6/2
f 131/6/2 132/6/2 134/6/2
f 129/6/2 133/6/2 135/6/2
f 133/6/2 134/6/2 135/6/2
f 134/6/2 132/6/2 136/6/2
f 135/6/2 134/6/2 136/6/2
f 139/6/3 138/6/3 137/6/3
f 140/6/3 138/6/3 139/6/3
f 141/6/3 138/6/3 140/6/3
f 142/6/3 138/6/3 141/6/3
f 145/7/3 144/7/3 143/7/3
f 146/7/3 144/7/3 145/7/3
f 147/6/3 141/6/3 140/6/3
f 148/6/3 138/6/3 142/6/3
f 149/6/3 147/6/3 140/6/3
f 149/6/3 148/6/3 147/6/3
f 150/6/3 138/6/3 148/6/3
f 150/6/3 148/6/3 149/6/3
f 153/7/3 152/7/3 151/7/3
f 154/7/3 152/7/3 153/7/3
f 156/6/3 149/6/3 140/6/3
f 157/6/3 149/6/3 156/6/3
f 158/6/3 138/6/3 150/6/3
f 159/6/3 157/6/3 156/6/3
f 159/6/3 158/6/3 157/6/3
f 159/6/3 156/6/3 155/6/3
f 160/6/3 138/6/3 158/6/3
f 160/6/3 158/6/3 159/6/3
f 163/6/3 162/6/3 161/6/3
f 164/6/3 162/6/3 163/6/3
f 165/6/3 163/6/3 161/6/3
f 166/6/3 162/6/3 164/6/3
f 167/6/3 165/6/3 161/6/3
f 167/6/3 166/6/3 165/6/3
f 168/6/3 162/6/3 166/6/3
f 168/6/3 166/6/3 167/6/3
f 171/6/3 170/6/3 169/6/3
f 172/6/3 170/6/3 171/6/3
f 173/6/3 171/6/3 169/6/3
f 174/6/3 170/6/3 172/6/3
f 175/6/3 173/6/3 169/6/3
f 175/6/3 174/6/3 173/6/3
f 176/6/3 170/6/3 174/6/3
f 176/6/3 174/6/3 175/6/3
f 179/3/3 178/3/3 177/3/3
f 180/3/3 178/3/3 179/3/3
f 183/3/3 182/3/3 181/3/3
f 184/3/3 182/3/3 183/3/3
f 187/1/3 186/1/3 185/1/3
f 188/1/3 186/1/3 187/1/3
f 191/3/3 190/3/3 189/3/3
f 192/3/3 190/3/3 191/3/3
f 195/5/3 194/5/3 193/5/3
f 196/5/3 194/5/3 195/5/3
f 201/3/3 198/3/3 197/3/3
f 202/3/3 201/3/3 200/3/3
f 203/3/3 198/3/3 201/3/3
f 203/3/3 201/3/3 202/3/3
f 204/3/3 198/3/3 203/3/3
f 205/4/3 199/4/3 198/4/3
f 205/3/3 198/3/3 204/3/3
f 206/4/3 199/4/3 205/4/3
f 209/1/3 208/1/3 207/1/3
f 210/1/3 208/1/3 209/1/3
f 213/6/3 212/6/3 211/6/3
f 214/6/3 212/6/3 213/6/3
f 215/6/3 213/6/3 211/6/3
f 216/6/3 213/6/3 215/6/3
f 219/6/3 218/6/3 217/6/3
f 221/6/3 219/6/3 217/6/3
f 221/6/3 220/6/3 219/6/3
f 222/6/3 220/6/3 221/6/3
f 223/6/4 224/6/4 225/6/4
f 225/6/4 224/6/4 226/6/4
f 223/6/4 225/6/4 227/6/4
f 227/6/4 225/6/4 228/6/4
f 229/6/4 230/6/4 231/6/4
f 229/6/4 231/6/4 233/6/4
f 231/6/4 232/6/4 233/6/4
f 233/6/4 232/6/4 234/6/4
f 235/3/4 236/3/4 237/3/4
f 237/3/4 236/3/4 238/3/4
f 239/3/4 240/3/4 241/3/4
f 241/3/4 240/3/4 242/3/4
f 243/1/4 244/1/4 245/1/4
f 245/1/4 244/1/4 246/1/4
f 247/5/4 248/5/4 249/5/4
f 249/5/4 248/5/4 250/5/4
f 251/3/4 252/3/4 255/3/4
f 254/3/4 255/3/4 256/3/4
f 255/3/4 252/3/4 257/3/4
f 256/3/4 255/3/4 257/3/4
f 257/3/4 252/3/4 258/3/4
f 252/4/4 253/4/4 259/4/4
f 258/3/4 252/3/4 259/3/4
f 259/4/4 253/4/4 260/4/4
f 261/1/4 262/1/4 263/1/4
f 263/1/4 262/1/4 264/1/4
f 265/6/4 266/6/4 267/6/4
f 267/6/4 266/6/4 268/6/4
f 268/6/4 266/6/4 270/6/4
f 269/6/4 270/6/4 271/6/4
f 270/6/4 266/6/4 272/6/4
f 271/6/4 270/6/4 272/6/4
f 277/6/5 274/6/5 273/6/5
f 278/6/5 274/6/5 277/6/5
f 279/6/5 276/6/5 275/6/5
f 280/6/5 276/6/5 279/6/5
f 285/6/5 282/6/5 281/6/5
f 286/6/5 282/6/5 285/6/5
f 287/6/5 284/6/5 283/6/5
f 288/6/5 284/6/5 287/6/5
f 292/6/5 290/6/5 289/6/5
f 293/6/5 290/6/5 292/6/5
f 295/6/5 292/6/5 291/6/5
f 295/6/5 294/6/5 293/6/5
f 295/6/5 293/6/5 292/6/5
f 296/6/5 294/6/5 295/6/5
f 297/6/5 294/6/5 296/6/5
f 298/6/5 294/6/5 297/6/5
f 299/6/5 297/6/5 296/6/5
f 300/6/5 297/6/5 299/6/5
f 305/7/5 302/7/5 301/7/5
f 306/7/5 302/7/5 305/7/5
f 307/7/5 304/7/5 303/7/5
f 308/7/5 304/7/5 307/7/5
f 313/6/5 310/6/5 309/6/5
f 314/6/5 310/6/5 313/6/5
f 315/6/5 312/6/5 311/6/5
f 316/6/5 312/6/5 315/6/5
f 321/6/5 318/6/5 317/6/5
f 322/6/5 318/6/5 321/6/5
f 323/6/5 320/6/5 319/6/5
f 324/6/5 320/6/5 323/6/5
f 327/5/5 326/5/5 325/5/5
f 328/5/5 326/5/5 327/5/5
f 333/3/5 330/3/5 329/3/5
f 334/3/5 330/3/5 333/3/5
f 335/3/5 332/3/5 331/3/5
f 336/3/5 332/3/5 335/3/5
f 337/6/6 338/6/6 341/6/6
f 341/6/6 338/6/6 342/6/6
f 339/6/6 340/6/6 343/6/6
f 343/6/6 340/6/6 344/6/6
f 345/7/6 346/7/6 349/7/6
f 349/7/6 346/7/6 350/7/6
f 347/7/6 348/7/6 351/7/6
f 351/7/6 348/7/6 352/7/6
f 353/6/6 354/6/6 355/6/6
f 355/6/6 354/6/6 356/6/6
f 356/6/6 354/6/6 357/6/6
f 357/6/6 354/6/6 358/6/6
f 353/6/6 355/6/6 359/6/6
f 356/6/6 357/6/6 360/6/6
f 360/6/6 357/6/6 361/6/6
f 358/6/6 354/6/6 362/6/6
f 360/6/6 361/6/6 363/6/6
f 361/6/6 362/6/6 363/6/6
f 362/6/6 354/6/6 363/6/6
f 359/6/6 360/6/6 363/6/6
f 363/6/6 354/6/6 364/6/6
f 359/6/6 363/6/6 365/6/6
f 365/6/6 363/6/6 366/6/6
f 359/6/6 365/6/6 367/6/6
f 366/6/6 363/6/6 368/6/6
f 368/6/6 363/6/6 369/6/6
f 364/6/6 354/6/6 370/6/6
f 353/6/6 359/6/6 371/6/6
f 369/6/6 370/6/6 371/6/6
f 368/6/6 369/6/6 371/6/6
f 359/6/6 367/6/6 371/6/6
f 367/6/6 368/6/6 371/6/6
f 370/6/6 354/6/6 372/6/6
f 371/6/6 370/6/6 372/6/6
f 373/3/6 374/3/6 377/3/6
f 377/3/6 374/3/6 378/3/6
f 375/3/6 376/3/6 379/3/6
f 379/3/6 376/3/6 380/3/6
f 381/3/6 382/3/6 383/3/6
f 383/3/6 382/3/6 384/3/6
f 385/2/6 386/2/6 389/2/6
f 389/2/6 386/2/6 390/2/6
f 387/5/6 388/5/6 391/5/6
f 391/5/6 388/5/6 392/5/6
f 393/1/6 394/1/6 395/1/6
f 395/1/6 394/1/6 396/1/6
f 393/1/6 395/1/6 397/1/6
f 396/1/6 394/1/6 398/1/6
f 393/1/6 397/1/6 399/1/6
f 397/1/6 398/1/6 399/1/6
f 398/1/6 394/1/6 400/1/6
f 399/1/6 398/1/6 400/1/6
f 401/4/6 402/4/6 403/4/6
f 403/4/6 402/4/6 404/4/6
