# MagicaVoxel @ Ephtracy

# group
o 

# material
mtllib lamp.mtl
usemtl palette

# normals
vn -1 0 0
vn 1 0 0
vn 0 0 1
vn 0 0 -1
vn 0 -1 0
vn 0 1 0

# texcoords
vt 0.662109 0.5
vt 0.794922 0.5
vt 0.798828 0.5

# verts
v 2.9 4 -3.3
v 2.9 4 -5.2
v 2.9 4.2 -3.5
v 2.9 4.2 -5
v 2.9 5.5 -3.5
v 2.9 5.5 -5
v 2.9 5.7 -3.3
v 2.9 5.7 -5.2
v 3 0.1 -3.3
v 3 0.1 -5.2
v 3 0.3 -3.3
v 3 0.3 -5.2
v 3 4.2 -3.5
v 3 4.2 -5
v 3 5.5 -3.5
v 3 5.5 -5
v 3.7 0.3 -4
v 3.7 0.3 -4.5
v 3.7 4 -4
v 3.7 4 -4.5
v 4.7 4.2 -3.3
v 4.7 4.2 -3.4
v 4.7 4.2 -5.1
v 4.7 4.2 -5.2
v 4.7 5.5 -3.3
v 4.7 5.5 -3.4
v 4.7 5.5 -5.1
v 4.7 5.5 -5.2
v 4.7 5.6 -3.5
v 4.7 5.6 -5
v 4.7 5.7 -3.5
v 4.7 5.7 -5
v 3.1 4.2 -3.3
v 3.1 4.2 -3.4
v 3.1 4.2 -5.1
v 3.1 4.2 -5.2
v 3.1 5.5 -3.3
v 3.1 5.5 -3.4
v 3.1 5.5 -5.1
v 3.1 5.5 -5.2
v 3.1 5.6 -3.5
v 3.1 5.6 -5
v 3.1 5.7 -3.5
v 3.1 5.7 -5
v 4.2 0.3 -4
v 4.2 0.3 -4.5
v 4.2 4 -4
v 4.2 4 -4.5
v 4.8 0.1 -3.3
v 4.8 0.1 -5.2
v 4.8 0.3 -3.3
v 4.8 0.3 -5.2
v 4.8 4.2 -3.5
v 4.8 4.2 -5
v 4.8 5.5 -3.5
v 4.8 5.5 -5
v 4.9 4 -3.3
v 4.9 4 -5.2
v 4.9 4.2 -3.5
v 4.9 4.2 -5
v 4.9 5.5 -3.5
v 4.9 5.5 -5
v 4.9 5.7 -3.3
v 4.9 5.7 -5.2
v 2.9 4 -3.3
v 2.9 5.7 -3.3
v 3 0.1 -3.3
v 3 0.3 -3.3
v 3.1 4.2 -3.3
v 3.1 5.5 -3.3
v 4.7 4.2 -3.3
v 4.7 5.5 -3.3
v 4.8 0.1 -3.3
v 4.8 0.3 -3.3
v 4.9 4 -3.3
v 4.9 5.7 -3.3
v 3.1 4.2 -3.4
v 3.1 5.5 -3.4
v 4.6 4.2 -3.4
v 4.6 5.5 -3.4
v 4.7 4.2 -3.4
v 4.7 5.5 -3.4
v 3.7 0.3 -4
v 3.7 4 -4
v 4.2 0.3 -4
v 4.2 4 -4
v 2.9 4.2 -5
v 2.9 5.5 -5
v 3 4.2 -5
v 3 5.5 -5
v 3.1 5.6 -5
v 3.1 5.7 -5
v 4.7 5.6 -5
v 4.7 5.7 -5
v 4.8 4.2 -5
v 4.8 5.5 -5
v 4.9 4.2 -5
v 4.9 5.5 -5
v 2.9 4.2 -3.5
v 2.9 5.5 -3.5
v 3 4.2 -3.5
v 3 5.5 -3.5
v 3.1 5.6 -3.5
v 3.1 5.7 -3.5
v 4.7 5.6 -3.5
v 4.7 5.7 -3.5
v 4.8 4.2 -3.5
v 4.8 5.5 -3.5
v 4.9 4.2 -3.5
v 4.9 5.5 -3.5
v 3.7 0.3 -4.5
v 3.7 4 -4.5
v 4.2 0.3 -4.5
v 4.2 4 -4.5
v 3.1 4.2 -5.1
v 3.1 5.5 -5.1
v 4.7 4.2 -5.1
v 4.7 5.5 -5.1
v 2.9 4 -5.2
v 2.9 5.7 -5.2
v 3 0.1 -5.2
v 3 0.3 -5.2
v 3.1 4.2 -5.2
v 3.1 5.5 -5.2
v 4.7 4.2 -5.2
v 4.7 5.5 -5.2
v 4.8 0.1 -5.2
v 4.8 0.3 -5.2
v 4.9 4 -5.2
v 4.9 5.7 -5.2
v 3 0.1 -3.3
v 4.8 0.1 -3.3
v 3 0.1 -5.2
v 4.8 0.1 -5.2
v 2.9 4 -3.3
v 4.9 4 -3.3
v 3.7 4 -4
v 4.2 4 -4
v 3.7 4 -4.5
v 4.2 4 -4.5
v 2.9 4 -5.2
v 4.9 4 -5.2
v 3.1 5.5 -3.3
v 4.7 5.5 -3.3
v 3.1 5.5 -3.4
v 4.6 5.5 -3.4
v 4.7 5.5 -3.4
v 2.9 5.5 -3.5
v 3 5.5 -3.5
v 4.8 5.5 -3.5
v 4.9 5.5 -3.5
v 2.9 5.5 -5
v 3 5.5 -5
v 4.8 5.5 -5
v 4.9 5.5 -5
v 3.1 5.5 -5.1
v 4.7 5.5 -5.1
v 3.1 5.5 -5.2
v 4.7 5.5 -5.2
v 3 0.3 -3.3
v 4.8 0.3 -3.3
v 3.7 0.3 -4
v 4.2 0.3 -4
v 3.7 0.3 -4.5
v 4.2 0.3 -4.5
v 3 0.3 -5.2
v 4.8 0.3 -5.2
v 3.1 4.2 -3.3
v 4.7 4.2 -3.3
v 3.1 4.2 -3.4
v 4.6 4.2 -3.4
v 4.7 4.2 -3.4
v 2.9 4.2 -3.5
v 3 4.2 -3.5
v 4.8 4.2 -3.5
v 4.9 4.2 -3.5
v 2.9 4.2 -5
v 3 4.2 -5
v 4.8 4.2 -5
v 4.9 4.2 -5
v 3.1 4.2 -5.1
v 4.7 4.2 -5.1
v 3.1 4.2 -5.2
v 4.7 4.2 -5.2
v 3.1 5.6 -3.5
v 4.7 5.6 -3.5
v 3.1 5.6 -5
v 4.7 5.6 -5
v 2.9 5.7 -3.3
v 4.9 5.7 -3.3
v 3.1 5.7 -3.5
v 4.7 5.7 -3.5
v 3.1 5.7 -5
v 4.7 5.7 -5
v 2.9 5.7 -5.2
v 4.9 5.7 -5.2

# faces
f 3/2/1 2/2/1 1/2/1
f 4/2/1 2/2/1 3/2/1
f 5/2/1 3/2/1 1/2/1
f 6/2/1 2/2/1 4/2/1
f 7/2/1 5/2/1 1/2/1
f 7/2/1 6/2/1 5/2/1
f 8/2/1 2/2/1 6/2/1
f 8/2/1 6/2/1 7/2/1
f 11/1/1 10/1/1 9/1/1
f 12/1/1 10/1/1 11/1/1
f 15/3/1 14/3/1 13/3/1
f 16/3/1 14/3/1 15/3/1
f 19/1/1 18/1/1 17/1/1
f 20/1/1 18/1/1 19/1/1
f 25/2/1 22/2/1 21/2/1
f 26/2/1 22/2/1 25/2/1
f 27/2/1 24/2/1 23/2/1
f 28/2/1 24/2/1 27/2/1
f 31/2/1 30/2/1 29/2/1
f 32/2/1 30/2/1 31/2/1
f 33/2/2 34/2/2 37/2/2
f 37/2/2 34/2/2 38/2/2
f 35/2/2 36/2/2 39/2/2
f 39/2/2 36/2/2 40/2/2
f 41/2/2 42/2/2 43/2/2
f 43/2/2 42/2/2 44/2/2
f 45/1/2 46/1/2 47/1/2
f 47/1/2 46/1/2 48/1/2
f 49/1/2 50/1/2 51/1/2
f 51/1/2 50/1/2 52/1/2
f 53/3/2 54/3/2 55/3/2
f 55/3/2 54/3/2 56/3/2
f 57/2/2 58/2/2 59/2/2
f 59/2/2 58/2/2 60/2/2
f 57/2/2 59/2/2 61/2/2
f 60/2/2 58/2/2 62/2/2
f 57/2/2 61/2/2 63/2/2
f 61/2/2 62/2/2 63/2/2
f 62/2/2 58/2/2 64/2/2
f 63/2/2 62/2/2 64/2/2
f 69/2/3 66/2/3 65/2/3
f 70/2/3 66/2/3 69/2/3
f 71/2/3 69/2/3 65/2/3
f 72/2/3 66/2/3 70/2/3
f 73/1/3 68/1/3 67/1/3
f 74/1/3 68/1/3 73/1/3
f 75/2/3 72/2/3 71/2/3
f 75/2/3 71/2/3 65/2/3
f 76/2/3 66/2/3 72/2/3
f 76/2/3 72/2/3 75/2/3
f 79/3/3 78/3/3 77/3/3
f 80/3/3 78/3/3 79/3/3
f 81/2/3 80/2/3 79/2/3
f 82/2/3 80/2/3 81/2/3
f 85/1/3 84/1/3 83/1/3
f 86/1/3 84/1/3 85/1/3
f 89/2/3 88/2/3 87/2/3
f 90/2/3 88/2/3 89/2/3
f 93/2/3 92/2/3 91/2/3
f 94/2/3 92/2/3 93/2/3
f 97/2/3 96/2/3 95/2/3
f 98/2/3 96/2/3 97/2/3
f 99/2/4 100/2/4 101/2/4
f 101/2/4 100/2/4 102/2/4
f 103/2/4 104/2/4 105/2/4
f 105/2/4 104/2/4 106/2/4
f 107/2/4 108/2/4 109/2/4
f 109/2/4 108/2/4 110/2/4
f 111/1/4 112/1/4 113/1/4
f 113/1/4 112/1/4 114/1/4
f 115/3/4 116/3/4 117/3/4
f 117/3/4 116/3/4 118/3/4
f 119/2/4 120/2/4 123/2/4
f 123/2/4 120/2/4 124/2/4
f 119/2/4 123/2/4 125/2/4
f 124/2/4 120/2/4 126/2/4
f 121/1/4 122/1/4 127/1/4
f 127/1/4 122/1/4 128/1/4
f 125/2/4 126/2/4 129/2/4
f 119/2/4 125/2/4 129/2/4
f 126/2/4 120/2/4 130/2/4
f 129/2/4 126/2/4 130/2/4
f 133/1/5 132/1/5 131/1/5
f 134/1/5 132/1/5 133/1/5
f 137/2/5 136/2/5 135/2/5
f 138/2/5 136/2/5 137/2/5
f 139/2/5 137/2/5 135/2/5
f 140/2/5 136/2/5 138/2/5
f 141/2/5 139/2/5 135/2/5
f 141/2/5 140/2/5 139/2/5
f 142/2/5 136/2/5 140/2/5
f 142/2/5 140/2/5 141/2/5
f 145/2/5 144/2/5 143/2/5
f 146/2/5 144/2/5 145/2/5
f 147/2/5 144/2/5 146/2/5
f 152/2/5 149/2/5 148/2/5
f 153/2/5 149/2/5 152/2/5
f 154/2/5 151/2/5 150/2/5
f 155/2/5 151/2/5 154/2/5
f 158/2/5 157/2/5 156/2/5
f 159/2/5 157/2/5 158/2/5
f 160/1/6 161/1/6 162/1/6
f 162/1/6 161/1/6 163/1/6
f 160/1/6 162/1/6 164/1/6
f 163/1/6 161/1/6 165/1/6
f 160/1/6 164/1/6 166/1/6
f 164/1/6 165/1/6 166/1/6
f 165/1/6 161/1/6 167/1/6
f 166/1/6 165/1/6 167/1/6
f 168/2/6 169/2/6 170/2/6
f 170/2/6 169/2/6 171/2/6
f 171/2/6 169/2/6 172/2/6
f 173/2/6 174/2/6 177/2/6
f 177/2/6 174/2/6 178/2/6
f 175/2/6 176/2/6 179/2/6
f 179/2/6 176/2/6 180/2/6
f 181/2/6 182/2/6 183/2/6
f 183/2/6 182/2/6 184/2/6
f 185/3/6 186/3/6 187/3/6
f 187/3/6 186/3/6 188/3/6
f 189/2/6 190/2/6 191/2/6
f 191/2/6 190/2/6 192/2/6
f 189/2/6 191/2/6 193/2/6
f 192/2/6 190/2/6 194/2/6
f 189/2/6 193/2/6 195/2/6
f 193/2/6 194/2/6 195/2/6
f 194/2/6 190/2/6 196/2/6
f 195/2/6 194/2/6 196/2/6
